<?xml version="1.0" encoding="utf-8"?>
<!-- Generator: Adobe Illustrator 18.1.1, SVG Export Plug-In . SVG Version: 6.00 Build 0)  -->
<svg version="1.1" id="Layer_1" xmlns="http://www.w3.org/2000/svg" xmlns:xlink="http://www.w3.org/1999/xlink" x="0px" y="0px"
	 viewBox="0 0 800 800" enable-background="new 0 0 800 800" xml:space="preserve">
<g>
	<g>
		<path fill="#F4F4F4" d="M56.1,304c15.2,0,30.4,0,45.6,0c13.9,0,25,4,33.3,11.9c8.2,7.9,12.4,18.4,12.3,31.6c0,7.1,0,14.3,0,21.4
			c0,13.2-4.2,23.9-12.4,32.3c-8.3,8.4-19.3,13.1-33.2,14c-5.5,0.4-11,0.7-16.5,1.1c0,25.6,0,51.1,0,76.7c-9.7,1.1-19.4,2.3-29,3.5
			C56.1,432.4,56.1,368.2,56.1,304z M100.3,388.6c5.7-0.3,10.1-2,13.2-5.2c3.1-3.1,4.7-7.4,4.7-12.9c0-7.6,0-15.2,0-22.8
			c0-5.5-1.5-9.7-4.7-12.6c-3.1-3-7.5-4.4-13.2-4.3c-5,0.1-10.1,0.2-15.1,0.2c0,19.4,0,38.9,0,58.3
			C90.3,389.1,95.3,388.8,100.3,388.6z"/>
		<path fill="#F4F4F4" d="M171.9,304c27.6,0,55.2,0,82.8,0c0,8.3,0,16.6,0,24.9c-17.9,0.1-35.8,0.3-53.6,0.5c0,16.5,0,33.1-0.1,49.6
			c14.2-0.4,28.4-0.8,42.6-1.2c0,8.3,0,16.7,0,25c-14.2,0.5-28.4,1-42.6,1.6c0,17.4-0.1,34.8-0.1,52.1c17.9-1.1,35.8-2.1,53.6-2.9
			c0,8.3,0,16.6,0,24.9c-27.6,1.5-55.2,3.4-82.8,5.7C171.7,424.3,171.8,364.1,171.9,304z"/>
		<path fill="#F4F4F4" d="M269.8,304c31,0,62,0,92.9,0c0,8.1,0,16.3,0,24.4c-10.6,0-21.3,0.1-31.9,0.1c0,49-0.1,98-0.1,147
			c-9.7,0.3-19.5,0.6-29.2,0.9c0.1-49.3,0.1-98.6,0.2-147.8c-10.6,0.1-21.3,0.1-31.9,0.2C269.8,320.6,269.8,312.3,269.8,304z"/>
		<path fill="#F4F4F4" d="M385.3,304c27.1,0,54.3,0,81.4,0c0,8.2,0,16.3,0,24.5c-17.4-0.1-34.8-0.1-52.3-0.1c0,16.7,0,33.3,0,50
			c13.8,0,27.5,0.1,41.3,0.2c0,8.1,0,16.3,0,24.4c-13.8-0.1-27.5-0.2-41.3-0.3c0,24,0,47.9,0,71.9c-9.7,0-19.5,0-29.2,0.1
			C385.3,417.8,385.3,360.9,385.3,304z"/>
		<path fill="#F4F4F4" d="M489.2,304c9.7,0,19.4,0,29.1,0c0.1,49.4,0.1,98.8,0.2,148.2c17.3,0.6,34.7,1.4,52,2.2
			c0,8.4,0,16.7,0,25.1c-27.1-1.6-54.1-2.8-81.2-3.7C489.3,418.6,489.3,361.3,489.2,304z"/>
		<path fill="#F4F4F4" d="M592.9,304c9.7,0,19.4,0,29.1,0c0.1,59.7,0.2,119.4,0.3,179.1c-9.7-0.8-19.4-1.5-29.1-2.1
			C593.1,422,593,363,592.9,304z"/>
		<path fill="#F4F4F4" d="M722.5,492.8c-8.2-22.9-16.5-45.4-24.7-67.6c-7.8,21.1-15.5,41.9-23.3,62.5c-10.1-1-20.1-1.9-30.2-2.8
			c12.7-30.1,25.4-60.6,38.1-91.8c-11.9-30.3-23.9-59.9-35.8-89.1c10.4,0,20.9,0,31.3,0c7.6,19.6,15.3,39.5,22.9,59.6
			c7.1-19.6,14.3-39.5,21.4-59.6c10.1,0,20.2,0,30.2,0c-12.1,31.4-24.2,62.1-36.2,92.1c12.6,32.7,25.1,66.1,37.6,100.4
			C743.4,495.2,733,494,722.5,492.8z"/>
	</g>
</g>
</svg>
